<svg width="41" height="328" viewBox="0 0 41 328" fill="none" xmlns="http://www.w3.org/2000/svg">
<path d="M41.5586 0.210938H19.7362L0.629143 160.948L19.7362 327.211H41.5586V0.210938Z" fill="white"/>
<path d="M3.09375 163.711C3.09375 170.18 6.53906 176.086 12.0938 179.32C17.7188 182.555 24.5391 182.555 30.0938 179.32C35.7188 176.086 39.0938 170.18 39.0938 163.711C39.0938 157.312 35.7188 151.406 30.0938 148.172C24.5391 144.938 17.7188 144.938 12.0938 148.172C6.53906 151.406 3.09375 157.312 3.09375 163.711ZM20.0391 155.203L27.3516 162.586C28.0547 163.219 28.0547 164.273 27.3516 164.906L20.0391 172.219C19.4062 172.922 18.3516 172.922 17.7188 172.219C17.0156 171.586 17.0156 170.531 17.7188 169.828L23.8359 163.711L17.7188 157.594C17.0156 156.961 17.0156 155.906 17.7188 155.203C18.3516 154.57 19.4062 154.57 20.0391 155.203Z" fill="black"/>
</svg>
