<svg width="41" height="328" viewBox="0 0 41 328" fill="none" xmlns="http://www.w3.org/2000/svg">
<path d="M-0.300781 0.210938H21.5216L40.6287 160.948L21.5216 327.211H-0.300781V0.210938Z" fill="#E7E7E7"/>
<path d="M38.1641 159.969C38.1641 166.438 34.7188 172.344 29.1641 175.578C23.5391 178.812 16.7188 178.812 11.1641 175.578C5.53906 172.344 2.16406 166.438 2.16406 159.969C2.16406 153.57 5.53906 147.664 11.1641 144.43C16.7188 141.195 23.5391 141.195 29.1641 144.43C34.7188 147.664 38.1641 153.57 38.1641 159.969ZM21.2188 151.461L13.9062 158.844C13.2031 159.477 13.2031 160.531 13.9062 161.164L21.2188 168.477C21.8516 169.18 22.9062 169.18 23.5391 168.477C24.2422 167.844 24.2422 166.789 23.5391 166.086L17.4219 159.969L23.5391 153.852C24.2422 153.219 24.2422 152.164 23.5391 151.461C22.9062 150.828 21.8516 150.828 21.2188 151.461Z" fill="black"/>
</svg>
